<svg xmlns="http://www.w3.org/2000/svg" viewBox="0 0 400 520" fill="none" role="img" aria-label="Body figure">
  <defs>
    <linearGradient id="bg" x1="0" y1="0" x2="400" y2="520" gradientUnits="userSpaceOnUse">
      <stop stop-color="#f8fafc"/>
      <stop offset="1" stop-color="#fff7ed"/>
    </linearGradient>
  </defs>
  <rect width="400" height="520" fill="url(#bg)"/>
  <!-- Head -->
  <ellipse cx="200" cy="72" rx="44" ry="48" fill="#cbd5e1"/>
  <!-- Neck -->
  <rect x="182" y="118" width="36" height="28" rx="12" fill="#cbd5e1"/>
  <!-- Torso -->
  <path d="M128 150c8-18 32-28 72-28s64 10 72 28l18 150c4 28-20 52-90 52s-94-24-90-52L128 150z" fill="#94a3b8"/>
  <!-- Arms -->
  <path d="M108 168c-28 8-42 52-34 96 6 34 22 48 38 44 10-2 16-18 14-42-4-38 6-78-18-98z" fill="#94a3b8"/>
  <path d="M292 168c28 8 42 52 34 96-6 34-22 48-38 44-10-2-16-18-14-42 4-38-6-78 18-98z" fill="#94a3b8"/>
  <!-- Legs -->
  <path d="M158 352h36l8 120c2 18-8 32-26 32h-4c-18 0-28-14-26-32l12-120z" fill="#64748b"/>
  <path d="M206 352h36l-8 120c-2 18 8 32 26 32h4c18 0 28-14 26-32l-12-120z" fill="#64748b"/>
  <!-- Subtle motion accent -->
  <ellipse cx="200" cy="250" rx="70" ry="90" fill="#fb923c" opacity=".08"/>
</svg>
